%TF.GenerationSoftware,KiCad,Pcbnew,9.0.2*%
%TF.CreationDate,2025-07-27T17:27:23+05:30*%
%TF.ProjectId,smart_usb,736d6172-745f-4757-9362-2e6b69636164,rev?*%
%TF.SameCoordinates,Original*%
%TF.FileFunction,Copper,L2,Bot*%
%TF.FilePolarity,Positive*%
%FSLAX46Y46*%
G04 Gerber Fmt 4.6, Leading zero omitted, Abs format (unit mm)*
G04 Created by KiCad (PCBNEW 9.0.2) date 2025-07-27 17:27:23*
%MOMM*%
%LPD*%
G01*
G04 APERTURE LIST*
%TA.AperFunction,HeatsinkPad*%
%ADD10O,1.000000X2.100000*%
%TD*%
%TA.AperFunction,HeatsinkPad*%
%ADD11O,1.000000X1.600000*%
%TD*%
%TA.AperFunction,HeatsinkPad*%
%ADD12C,0.600000*%
%TD*%
%TA.AperFunction,ViaPad*%
%ADD13C,0.600000*%
%TD*%
%TA.AperFunction,Conductor*%
%ADD14C,0.300000*%
%TD*%
%TA.AperFunction,Conductor*%
%ADD15C,0.500000*%
%TD*%
G04 APERTURE END LIST*
D10*
%TO.P,J1,S1,SHIELD*%
%TO.N,GND*%
X213880000Y-85420000D03*
D11*
X213880000Y-89600000D03*
D10*
X222520000Y-85420000D03*
D11*
X222520000Y-89600000D03*
%TD*%
D12*
%TO.P,U3,39,GND*%
%TO.N,GND*%
X191312500Y-82100000D03*
X192837500Y-82100000D03*
X190550000Y-81337500D03*
X192075000Y-81337500D03*
X193600000Y-81337500D03*
X191312500Y-80575000D03*
X192837500Y-80575000D03*
X190550000Y-79812500D03*
X192075000Y-79812500D03*
X193600000Y-79812500D03*
X191312500Y-79050000D03*
X192837500Y-79050000D03*
%TD*%
D13*
%TO.N,GND*%
X222700000Y-83750000D03*
X195850000Y-59850000D03*
X222500000Y-55100000D03*
X212020380Y-87310380D03*
X214450000Y-56350000D03*
X221500000Y-59450000D03*
X205800000Y-53850000D03*
X192300000Y-59850000D03*
X184735000Y-90075000D03*
X190800000Y-59850000D03*
X221550000Y-82750000D03*
X214450000Y-55200000D03*
X191600000Y-59850000D03*
X222950000Y-61150000D03*
X212450000Y-89700000D03*
X222050000Y-78800000D03*
X222400000Y-59450000D03*
X221200000Y-54100000D03*
X189550000Y-59850000D03*
X210100000Y-82950000D03*
X204300000Y-85750000D03*
X222300000Y-57850000D03*
X221300000Y-73150000D03*
X195050000Y-59850000D03*
X222950000Y-60250000D03*
X206100000Y-63700000D03*
X215050000Y-82900000D03*
X213750000Y-83750000D03*
X206400000Y-58400000D03*
X215200000Y-80200000D03*
X206050000Y-66350000D03*
X221500000Y-89650000D03*
X184150000Y-59950000D03*
%TO.N,VBUS*%
X210925000Y-86225000D03*
X216291735Y-86291735D03*
X213100000Y-88350000D03*
X208875000Y-63250000D03*
X218550000Y-86725000D03*
%TO.N,Net-(DS1-D7)*%
X201550000Y-61500000D03*
X193600000Y-69350000D03*
X198050000Y-61750000D03*
X195179346Y-63700000D03*
%TO.N,Net-(DS1-D3)*%
X206000000Y-59850000D03*
X198600000Y-59850000D03*
X207950000Y-69550000D03*
X203800000Y-59850000D03*
%TO.N,Net-(DS1-~{RES})*%
X200000000Y-69600000D03*
X193700000Y-60500000D03*
%TO.N,Net-(DS1-D{slash}~{C})*%
X196150000Y-69650000D03*
X195600000Y-66800000D03*
%TO.N,Net-(DS1-D2)*%
X195700000Y-62050000D03*
X199900000Y-86800000D03*
%TO.N,Net-(DS1-D0)*%
X197900000Y-55800000D03*
X204175000Y-88650000D03*
%TO.N,Net-(DS1-D6)*%
X200900000Y-64450000D03*
X202700000Y-69700000D03*
%TO.N,Net-(DS1-~{CS})*%
X192650000Y-73350000D03*
X193000000Y-61300000D03*
%TO.N,Net-(DS1-D1)*%
X204450000Y-82100000D03*
X198800000Y-56494998D03*
%TO.N,Net-(DS1-D4)*%
X199250000Y-62500000D03*
X200109620Y-68790380D03*
%TO.N,Net-(DS1-D5)*%
X197050000Y-66800000D03*
X197050000Y-69200000D03*
%TD*%
D14*
%TO.N,VBUS*%
X213180000Y-88270000D02*
X214313470Y-88270000D01*
D15*
X208875000Y-85125000D02*
X209975000Y-86225000D01*
X208875000Y-63250000D02*
X208875000Y-85125000D01*
X209975000Y-86225000D02*
X210925000Y-86225000D01*
D14*
X218550000Y-86725000D02*
X216725000Y-86725000D01*
X213100000Y-88350000D02*
X213180000Y-88270000D01*
X216725000Y-86725000D02*
X216291735Y-86291735D01*
X214313470Y-88270000D02*
X216291735Y-86291735D01*
%TO.N,Net-(DS1-D7)*%
X201100000Y-61750000D02*
X201350000Y-61500000D01*
X195179346Y-63700000D02*
X193600000Y-65279346D01*
X201350000Y-61500000D02*
X201550000Y-61500000D01*
X193600000Y-65279346D02*
X193600000Y-69350000D01*
X198050000Y-61750000D02*
X201100000Y-61750000D01*
%TO.N,Net-(DS1-D3)*%
X206850000Y-59850000D02*
X206000000Y-59850000D01*
X203800000Y-59850000D02*
X198600000Y-59850000D01*
X207950000Y-69550000D02*
X207950000Y-60950000D01*
X207950000Y-60950000D02*
X206850000Y-59850000D01*
%TO.N,Net-(DS1-~{RES})*%
X199458620Y-68847900D02*
X198350000Y-67739280D01*
X199839966Y-69441380D02*
X199458620Y-69060034D01*
X198350000Y-63050000D02*
X195800000Y-60500000D01*
X200000000Y-69600000D02*
X200000000Y-69441380D01*
X195800000Y-60500000D02*
X193700000Y-60500000D01*
X200000000Y-69441380D02*
X199839966Y-69441380D01*
X199458620Y-69060034D02*
X199458620Y-68847900D01*
X198350000Y-67739280D02*
X198350000Y-63050000D01*
%TO.N,Net-(DS1-D{slash}~{C})*%
X196150000Y-67350000D02*
X196150000Y-69650000D01*
X195600000Y-66800000D02*
X196150000Y-67350000D01*
%TO.N,Net-(DS1-D2)*%
X200600000Y-69920654D02*
X200269654Y-70251000D01*
X198957620Y-69055420D02*
X197849000Y-67946800D01*
X199900000Y-86800000D02*
X200600000Y-86100000D01*
X199730346Y-70251000D02*
X199349000Y-69869654D01*
X197849000Y-67946800D02*
X197849000Y-64199000D01*
X199349000Y-69658935D02*
X198957620Y-69267554D01*
X197849000Y-64199000D02*
X195700000Y-62050000D01*
X200600000Y-86100000D02*
X200600000Y-69920654D01*
X200269654Y-70251000D02*
X199730346Y-70251000D01*
X198957620Y-69267554D02*
X198957620Y-69055420D01*
X199349000Y-69869654D02*
X199349000Y-69658935D01*
%TO.N,Net-(DS1-D0)*%
X213029000Y-87221000D02*
X213029000Y-84517504D01*
X213100000Y-84446504D02*
X213100000Y-56850000D01*
X204175000Y-88650000D02*
X211600000Y-88650000D01*
X211600000Y-88650000D02*
X213029000Y-87221000D01*
X213100000Y-56850000D02*
X210750000Y-54500000D01*
X199200000Y-54500000D02*
X197900000Y-55800000D01*
X210750000Y-54500000D02*
X199200000Y-54500000D01*
X213029000Y-84517504D02*
X213100000Y-84446504D01*
%TO.N,Net-(DS1-D6)*%
X200900000Y-64450000D02*
X200900000Y-67900000D01*
X200900000Y-67900000D02*
X202700000Y-69700000D01*
%TO.N,Net-(DS1-~{CS})*%
X192150000Y-62150000D02*
X193000000Y-61300000D01*
X192150000Y-72850000D02*
X192150000Y-62150000D01*
X192650000Y-73350000D02*
X192150000Y-72850000D01*
%TO.N,Net-(DS1-D1)*%
X204450000Y-57050000D02*
X204450000Y-82100000D01*
X203894998Y-56494998D02*
X204450000Y-57050000D01*
X198800000Y-56494998D02*
X203894998Y-56494998D01*
%TO.N,Net-(DS1-D4)*%
X199250000Y-67930760D02*
X200109620Y-68790380D01*
X199250000Y-62500000D02*
X199250000Y-67930760D01*
%TO.N,Net-(DS1-D5)*%
X197050000Y-69200000D02*
X197050000Y-66800000D01*
%TD*%
%TA.AperFunction,Conductor*%
%TO.N,GND*%
G36*
X223952433Y-50520185D02*
G01*
X223998188Y-50572989D01*
X224009394Y-50624529D01*
X224006020Y-65089602D01*
X224000479Y-88846465D01*
X223999646Y-92415529D01*
X223979946Y-92482564D01*
X223927131Y-92528306D01*
X223875646Y-92539500D01*
X183309000Y-92539500D01*
X183241961Y-92519815D01*
X183196206Y-92467011D01*
X183185000Y-92415500D01*
X183185000Y-72914071D01*
X191499499Y-72914071D01*
X191524497Y-73039738D01*
X191524499Y-73039744D01*
X191573534Y-73158125D01*
X191644726Y-73264673D01*
X191644727Y-73264674D01*
X191832984Y-73452930D01*
X191866469Y-73514253D01*
X191866920Y-73516420D01*
X191880261Y-73583489D01*
X191880264Y-73583501D01*
X191940602Y-73729172D01*
X191940609Y-73729185D01*
X192028210Y-73860288D01*
X192028213Y-73860292D01*
X192139707Y-73971786D01*
X192139711Y-73971789D01*
X192270814Y-74059390D01*
X192270827Y-74059397D01*
X192416498Y-74119735D01*
X192416503Y-74119737D01*
X192571153Y-74150499D01*
X192571156Y-74150500D01*
X192571158Y-74150500D01*
X192728844Y-74150500D01*
X192728845Y-74150499D01*
X192883497Y-74119737D01*
X193029179Y-74059394D01*
X193160289Y-73971789D01*
X193271789Y-73860289D01*
X193359394Y-73729179D01*
X193419737Y-73583497D01*
X193450500Y-73428842D01*
X193450500Y-73271158D01*
X193450500Y-73271155D01*
X193450499Y-73271153D01*
X193449209Y-73264669D01*
X193419737Y-73116503D01*
X193387940Y-73039738D01*
X193359397Y-72970827D01*
X193359390Y-72970814D01*
X193271789Y-72839711D01*
X193271786Y-72839707D01*
X193160292Y-72728213D01*
X193160288Y-72728210D01*
X193029185Y-72640609D01*
X193029172Y-72640602D01*
X192877870Y-72577932D01*
X192878879Y-72575494D01*
X192830008Y-72543416D01*
X192801598Y-72479583D01*
X192800500Y-72463121D01*
X192800500Y-69981941D01*
X192820185Y-69914902D01*
X192872989Y-69869147D01*
X192942147Y-69859203D01*
X193005703Y-69888228D01*
X193012181Y-69894260D01*
X193089707Y-69971786D01*
X193089711Y-69971789D01*
X193220814Y-70059390D01*
X193220827Y-70059397D01*
X193366498Y-70119735D01*
X193366503Y-70119737D01*
X193521153Y-70150499D01*
X193521156Y-70150500D01*
X193521158Y-70150500D01*
X193678844Y-70150500D01*
X193678845Y-70150499D01*
X193833497Y-70119737D01*
X193977021Y-70060288D01*
X193979172Y-70059397D01*
X193979172Y-70059396D01*
X193979179Y-70059394D01*
X194110289Y-69971789D01*
X194221789Y-69860289D01*
X194309394Y-69729179D01*
X194369737Y-69583497D01*
X194400500Y-69428842D01*
X194400500Y-69271158D01*
X194400500Y-69271155D01*
X194400499Y-69271153D01*
X194380543Y-69170828D01*
X194369737Y-69116503D01*
X194368681Y-69113954D01*
X194309397Y-68970828D01*
X194309396Y-68970827D01*
X194309394Y-68970821D01*
X194271396Y-68913953D01*
X194250520Y-68847276D01*
X194250500Y-68845064D01*
X194250500Y-65600153D01*
X194270185Y-65533114D01*
X194286814Y-65512476D01*
X195282277Y-64517013D01*
X195343598Y-64483530D01*
X195345663Y-64483099D01*
X195412843Y-64469737D01*
X195558525Y-64409394D01*
X195689635Y-64321789D01*
X195801135Y-64210289D01*
X195888740Y-64079179D01*
X195892200Y-64070827D01*
X195946509Y-63939711D01*
X195949083Y-63933497D01*
X195979846Y-63778842D01*
X195979846Y-63621158D01*
X195967382Y-63558498D01*
X195973609Y-63488908D01*
X196016471Y-63433730D01*
X196082361Y-63410485D01*
X196150358Y-63426552D01*
X196176680Y-63446626D01*
X197162181Y-64432127D01*
X197195666Y-64493450D01*
X197198500Y-64519808D01*
X197198500Y-65875500D01*
X197178815Y-65942539D01*
X197126011Y-65988294D01*
X197074500Y-65999500D01*
X196971155Y-65999500D01*
X196816510Y-66030261D01*
X196816498Y-66030264D01*
X196670827Y-66090602D01*
X196670814Y-66090609D01*
X196539711Y-66178210D01*
X196539707Y-66178213D01*
X196428213Y-66289707D01*
X196428208Y-66289713D01*
X196428098Y-66289879D01*
X196428017Y-66289945D01*
X196424347Y-66294419D01*
X196423498Y-66293722D01*
X196374484Y-66334681D01*
X196305158Y-66343384D01*
X196242132Y-66313226D01*
X196225759Y-66294331D01*
X196225653Y-66294419D01*
X196222378Y-66290428D01*
X196221902Y-66289879D01*
X196221791Y-66289713D01*
X196221786Y-66289707D01*
X196110292Y-66178213D01*
X196110288Y-66178210D01*
X195979185Y-66090609D01*
X195979172Y-66090602D01*
X195833501Y-66030264D01*
X195833489Y-66030261D01*
X195678845Y-65999500D01*
X195678842Y-65999500D01*
X195521158Y-65999500D01*
X195521155Y-65999500D01*
X195366510Y-66030261D01*
X195366498Y-66030264D01*
X195220827Y-66090602D01*
X195220814Y-66090609D01*
X195089711Y-66178210D01*
X195089707Y-66178213D01*
X194978213Y-66289707D01*
X194978210Y-66289711D01*
X194890609Y-66420814D01*
X194890602Y-66420827D01*
X194830264Y-66566498D01*
X194830261Y-66566510D01*
X194799500Y-66721153D01*
X194799500Y-66878846D01*
X194830261Y-67033489D01*
X194830264Y-67033501D01*
X194890602Y-67179172D01*
X194890609Y-67179185D01*
X194978210Y-67310288D01*
X194978213Y-67310292D01*
X195089707Y-67421786D01*
X195089711Y-67421789D01*
X195220814Y-67509390D01*
X195220827Y-67509397D01*
X195308230Y-67545599D01*
X195366503Y-67569737D01*
X195399691Y-67576338D01*
X195461600Y-67608721D01*
X195496176Y-67669436D01*
X195499500Y-67697955D01*
X195499500Y-69145064D01*
X195479815Y-69212103D01*
X195478603Y-69213954D01*
X195440608Y-69270817D01*
X195440602Y-69270828D01*
X195380264Y-69416498D01*
X195380261Y-69416510D01*
X195349500Y-69571153D01*
X195349500Y-69728846D01*
X195380261Y-69883489D01*
X195380264Y-69883501D01*
X195440602Y-70029172D01*
X195440607Y-70029181D01*
X195528210Y-70160288D01*
X195528213Y-70160292D01*
X195639707Y-70271786D01*
X195639711Y-70271789D01*
X195770814Y-70359390D01*
X195770827Y-70359397D01*
X195916498Y-70419735D01*
X195916503Y-70419737D01*
X196071153Y-70450499D01*
X196071156Y-70450500D01*
X196071158Y-70450500D01*
X196228844Y-70450500D01*
X196228845Y-70450499D01*
X196383497Y-70419737D01*
X196529179Y-70359394D01*
X196660289Y-70271789D01*
X196771789Y-70160289D01*
X196843390Y-70053129D01*
X196897000Y-70008326D01*
X196966325Y-69999619D01*
X196970642Y-70000397D01*
X196971158Y-70000500D01*
X196971163Y-70000500D01*
X197128844Y-70000500D01*
X197128845Y-70000499D01*
X197283497Y-69969737D01*
X197410693Y-69917051D01*
X197429172Y-69909397D01*
X197429172Y-69909396D01*
X197429179Y-69909394D01*
X197560289Y-69821789D01*
X197671789Y-69710289D01*
X197759394Y-69579179D01*
X197762719Y-69571153D01*
X197804139Y-69471153D01*
X197819737Y-69433497D01*
X197850500Y-69278842D01*
X197850500Y-69167608D01*
X197870185Y-69100569D01*
X197922989Y-69054814D01*
X197992147Y-69044870D01*
X198055703Y-69073895D01*
X198062181Y-69079927D01*
X198278843Y-69296589D01*
X198312328Y-69357912D01*
X198312779Y-69360077D01*
X198332117Y-69457291D01*
X198332118Y-69457293D01*
X198332119Y-69457298D01*
X198343979Y-69485931D01*
X198381150Y-69575672D01*
X198381160Y-69575690D01*
X198452341Y-69682221D01*
X198452347Y-69682228D01*
X198670575Y-69900455D01*
X198679637Y-69917051D01*
X198692769Y-69930660D01*
X198703176Y-69960159D01*
X198704060Y-69961778D01*
X198704511Y-69963943D01*
X198711608Y-69999619D01*
X198717488Y-70029179D01*
X198722253Y-70053132D01*
X198723499Y-70059398D01*
X198765289Y-70160289D01*
X198772535Y-70177781D01*
X198843723Y-70284323D01*
X198843726Y-70284327D01*
X199315672Y-70756273D01*
X199315675Y-70756275D01*
X199315677Y-70756277D01*
X199422219Y-70827465D01*
X199540602Y-70876501D01*
X199540606Y-70876501D01*
X199540607Y-70876502D01*
X199666274Y-70901500D01*
X199666277Y-70901500D01*
X199825500Y-70901500D01*
X199892539Y-70921185D01*
X199938294Y-70973989D01*
X199949500Y-71025500D01*
X199949500Y-85779191D01*
X199940855Y-85808631D01*
X199934332Y-85838618D01*
X199930577Y-85843633D01*
X199929815Y-85846230D01*
X199913181Y-85866872D01*
X199797069Y-85982984D01*
X199735746Y-86016469D01*
X199733580Y-86016920D01*
X199666508Y-86030261D01*
X199666498Y-86030264D01*
X199520827Y-86090602D01*
X199520814Y-86090609D01*
X199389711Y-86178210D01*
X199389707Y-86178213D01*
X199278213Y-86289707D01*
X199278210Y-86289711D01*
X199190609Y-86420814D01*
X199190602Y-86420827D01*
X199130264Y-86566498D01*
X199130261Y-86566510D01*
X199099500Y-86721153D01*
X199099500Y-86878846D01*
X199130261Y-87033489D01*
X199130264Y-87033501D01*
X199190602Y-87179172D01*
X199190609Y-87179185D01*
X199278210Y-87310288D01*
X199278213Y-87310292D01*
X199389707Y-87421786D01*
X199389711Y-87421789D01*
X199520814Y-87509390D01*
X199520827Y-87509397D01*
X199611637Y-87547011D01*
X199666503Y-87569737D01*
X199808007Y-87597884D01*
X199821153Y-87600499D01*
X199821156Y-87600500D01*
X199821158Y-87600500D01*
X199978844Y-87600500D01*
X199978845Y-87600499D01*
X200133497Y-87569737D01*
X200279179Y-87509394D01*
X200410289Y-87421789D01*
X200521789Y-87310289D01*
X200609394Y-87179179D01*
X200669737Y-87033497D01*
X200683079Y-86966416D01*
X200715463Y-86904509D01*
X200716904Y-86903040D01*
X201105276Y-86514670D01*
X201142815Y-86458489D01*
X201176464Y-86408129D01*
X201176465Y-86408127D01*
X201225501Y-86289744D01*
X201240426Y-86214711D01*
X201250500Y-86164069D01*
X201250500Y-69856585D01*
X201250500Y-69856582D01*
X201225502Y-69730915D01*
X201225501Y-69730914D01*
X201225501Y-69730910D01*
X201176465Y-69612527D01*
X201154183Y-69579179D01*
X201154178Y-69579172D01*
X201105275Y-69505982D01*
X201014673Y-69415380D01*
X200908126Y-69344188D01*
X200884883Y-69334561D01*
X200830480Y-69290719D01*
X200808416Y-69224425D01*
X200817776Y-69172548D01*
X200855001Y-69082679D01*
X200874115Y-69036531D01*
X200917956Y-68982128D01*
X200984250Y-68960063D01*
X201051949Y-68977342D01*
X201076357Y-68996303D01*
X201882984Y-69802930D01*
X201916469Y-69864253D01*
X201916920Y-69866420D01*
X201930261Y-69933489D01*
X201930264Y-69933501D01*
X201990602Y-70079172D01*
X201990609Y-70079185D01*
X202078210Y-70210288D01*
X202078213Y-70210292D01*
X202189707Y-70321786D01*
X202189711Y-70321789D01*
X202320814Y-70409390D01*
X202320827Y-70409397D01*
X202420060Y-70450500D01*
X202466503Y-70469737D01*
X202621153Y-70500499D01*
X202621156Y-70500500D01*
X202621158Y-70500500D01*
X202778844Y-70500500D01*
X202778845Y-70500499D01*
X202933497Y-70469737D01*
X203079179Y-70409394D01*
X203210289Y-70321789D01*
X203321789Y-70210289D01*
X203409394Y-70079179D01*
X203417588Y-70059398D01*
X203430104Y-70029181D01*
X203469737Y-69933497D01*
X203500500Y-69778842D01*
X203500500Y-69621158D01*
X203500500Y-69621155D01*
X203500499Y-69621153D01*
X203498783Y-69612525D01*
X203469737Y-69466503D01*
X203454138Y-69428844D01*
X203409397Y-69320827D01*
X203409390Y-69320814D01*
X203321789Y-69189711D01*
X203321786Y-69189707D01*
X203210292Y-69078213D01*
X203210288Y-69078210D01*
X203079185Y-68990609D01*
X203079172Y-68990602D01*
X202933501Y-68930264D01*
X202933489Y-68930261D01*
X202866420Y-68916920D01*
X202804509Y-68884535D01*
X202802930Y-68882984D01*
X201586819Y-67666873D01*
X201553334Y-67605550D01*
X201550500Y-67579192D01*
X201550500Y-64954935D01*
X201570185Y-64887896D01*
X201571366Y-64886090D01*
X201609394Y-64829179D01*
X201669737Y-64683497D01*
X201700500Y-64528842D01*
X201700500Y-64371158D01*
X201700500Y-64371155D01*
X201700499Y-64371153D01*
X201669738Y-64216510D01*
X201669737Y-64216503D01*
X201660938Y-64195261D01*
X201609397Y-64070827D01*
X201609390Y-64070814D01*
X201521789Y-63939711D01*
X201521786Y-63939707D01*
X201410292Y-63828213D01*
X201410288Y-63828210D01*
X201279185Y-63740609D01*
X201279172Y-63740602D01*
X201133501Y-63680264D01*
X201133489Y-63680261D01*
X200978845Y-63649500D01*
X200978842Y-63649500D01*
X200821158Y-63649500D01*
X200821155Y-63649500D01*
X200666510Y-63680261D01*
X200666498Y-63680264D01*
X200520827Y-63740602D01*
X200520814Y-63740609D01*
X200389711Y-63828210D01*
X200389707Y-63828213D01*
X200278213Y-63939707D01*
X200278210Y-63939711D01*
X200190609Y-64070814D01*
X200190602Y-64070827D01*
X200139061Y-64195261D01*
X200095220Y-64249665D01*
X200028926Y-64271730D01*
X199961227Y-64254451D01*
X199913616Y-64203314D01*
X199900500Y-64147809D01*
X199900500Y-63004935D01*
X199920185Y-62937896D01*
X199921366Y-62936090D01*
X199959394Y-62879179D01*
X199962854Y-62870827D01*
X200017163Y-62739711D01*
X200019737Y-62733497D01*
X200050500Y-62578842D01*
X200050500Y-62524500D01*
X200070185Y-62457461D01*
X200122989Y-62411706D01*
X200174500Y-62400500D01*
X201164071Y-62400500D01*
X201251412Y-62383126D01*
X201289744Y-62375501D01*
X201408127Y-62326465D01*
X201415714Y-62321396D01*
X201482392Y-62300520D01*
X201484602Y-62300500D01*
X201628844Y-62300500D01*
X201628845Y-62300499D01*
X201783497Y-62269737D01*
X201929179Y-62209394D01*
X202060289Y-62121789D01*
X202171789Y-62010289D01*
X202259394Y-61879179D01*
X202319737Y-61733497D01*
X202350500Y-61578842D01*
X202350500Y-61421158D01*
X202350500Y-61421155D01*
X202350499Y-61421153D01*
X202319738Y-61266510D01*
X202319737Y-61266503D01*
X202312694Y-61249500D01*
X202259397Y-61120827D01*
X202259390Y-61120814D01*
X202171789Y-60989711D01*
X202171786Y-60989707D01*
X202060292Y-60878213D01*
X202060288Y-60878210D01*
X201929185Y-60790609D01*
X201929172Y-60790602D01*
X201804738Y-60739061D01*
X201750334Y-60695221D01*
X201728269Y-60628926D01*
X201745548Y-60561227D01*
X201796685Y-60513616D01*
X201852190Y-60500500D01*
X203295065Y-60500500D01*
X203362104Y-60520185D01*
X203363909Y-60521366D01*
X203420821Y-60559394D01*
X203420823Y-60559395D01*
X203420827Y-60559397D01*
X203496176Y-60590607D01*
X203566503Y-60619737D01*
X203676987Y-60641713D01*
X203699691Y-60646230D01*
X203761602Y-60678615D01*
X203796176Y-60739330D01*
X203799500Y-60767847D01*
X203799500Y-81595064D01*
X203779815Y-81662103D01*
X203778603Y-81663954D01*
X203740608Y-81720817D01*
X203740602Y-81720828D01*
X203680264Y-81866498D01*
X203680261Y-81866510D01*
X203649500Y-82021153D01*
X203649500Y-82178846D01*
X203680261Y-82333489D01*
X203680264Y-82333501D01*
X203740602Y-82479172D01*
X203740609Y-82479185D01*
X203828210Y-82610288D01*
X203828213Y-82610292D01*
X203939707Y-82721786D01*
X203939711Y-82721789D01*
X204070814Y-82809390D01*
X204070827Y-82809397D01*
X204216498Y-82869735D01*
X204216503Y-82869737D01*
X204371153Y-82900499D01*
X204371156Y-82900500D01*
X204371158Y-82900500D01*
X204528844Y-82900500D01*
X204528845Y-82900499D01*
X204683497Y-82869737D01*
X204829179Y-82809394D01*
X204960289Y-82721789D01*
X205071789Y-82610289D01*
X205159394Y-82479179D01*
X205219737Y-82333497D01*
X205250500Y-82178842D01*
X205250500Y-82021158D01*
X205250500Y-82021155D01*
X205250499Y-82021153D01*
X205219738Y-81866510D01*
X205219737Y-81866503D01*
X205159394Y-81720821D01*
X205121396Y-81663953D01*
X205100520Y-81597276D01*
X205100500Y-81595064D01*
X205100500Y-60353439D01*
X205120185Y-60286400D01*
X205172989Y-60240645D01*
X205242147Y-60230701D01*
X205305703Y-60259726D01*
X205327602Y-60284548D01*
X205378210Y-60360288D01*
X205378213Y-60360292D01*
X205489707Y-60471786D01*
X205489711Y-60471789D01*
X205620814Y-60559390D01*
X205620827Y-60559397D01*
X205696176Y-60590607D01*
X205766503Y-60619737D01*
X205921153Y-60650499D01*
X205921156Y-60650500D01*
X205921158Y-60650500D01*
X206078844Y-60650500D01*
X206078845Y-60650499D01*
X206233497Y-60619737D01*
X206379179Y-60559394D01*
X206436044Y-60521397D01*
X206454091Y-60515746D01*
X206470000Y-60505523D01*
X206500959Y-60501071D01*
X206502721Y-60500520D01*
X206504935Y-60500500D01*
X206529192Y-60500500D01*
X206596231Y-60520185D01*
X206616873Y-60536819D01*
X207263181Y-61183127D01*
X207296666Y-61244450D01*
X207299500Y-61270808D01*
X207299500Y-69045064D01*
X207279815Y-69112103D01*
X207278603Y-69113954D01*
X207240608Y-69170817D01*
X207240602Y-69170828D01*
X207180264Y-69316498D01*
X207180261Y-69316510D01*
X207149500Y-69471153D01*
X207149500Y-69628846D01*
X207180261Y-69783489D01*
X207180264Y-69783501D01*
X207240602Y-69929172D01*
X207240609Y-69929185D01*
X207328210Y-70060288D01*
X207328213Y-70060292D01*
X207439707Y-70171786D01*
X207439711Y-70171789D01*
X207570814Y-70259390D01*
X207570827Y-70259397D01*
X207716498Y-70319735D01*
X207716503Y-70319737D01*
X207871153Y-70350499D01*
X207871156Y-70350500D01*
X208000500Y-70350500D01*
X208067539Y-70370185D01*
X208113294Y-70422989D01*
X208124500Y-70474500D01*
X208124500Y-85198918D01*
X208124500Y-85198920D01*
X208124499Y-85198920D01*
X208153340Y-85343907D01*
X208153343Y-85343917D01*
X208209914Y-85480491D01*
X208209916Y-85480495D01*
X208228484Y-85508285D01*
X208237646Y-85521997D01*
X208292049Y-85603418D01*
X209496578Y-86807947D01*
X209496585Y-86807953D01*
X209554704Y-86846786D01*
X209554706Y-86846787D01*
X209554709Y-86846789D01*
X209619505Y-86890084D01*
X209756087Y-86946658D01*
X209756091Y-86946658D01*
X209756092Y-86946659D01*
X209901079Y-86975500D01*
X209901082Y-86975500D01*
X209901083Y-86975500D01*
X210048917Y-86975500D01*
X210620396Y-86975500D01*
X210667844Y-86984937D01*
X210691503Y-86994737D01*
X210691508Y-86994738D01*
X210691511Y-86994739D01*
X210846153Y-87025499D01*
X210846156Y-87025500D01*
X210846158Y-87025500D01*
X211003844Y-87025500D01*
X211003845Y-87025499D01*
X211158497Y-86994737D01*
X211304179Y-86934394D01*
X211435289Y-86846789D01*
X211546789Y-86735289D01*
X211634394Y-86604179D01*
X211694737Y-86458497D01*
X211725500Y-86303842D01*
X211725500Y-86146158D01*
X211725500Y-86146155D01*
X211725499Y-86146153D01*
X211716957Y-86103210D01*
X211694737Y-85991503D01*
X211690249Y-85980668D01*
X211634397Y-85845827D01*
X211634390Y-85845814D01*
X211546789Y-85714711D01*
X211546786Y-85714707D01*
X211435292Y-85603213D01*
X211435288Y-85603210D01*
X211304185Y-85515609D01*
X211304172Y-85515602D01*
X211158501Y-85455264D01*
X211158489Y-85455261D01*
X211003845Y-85424500D01*
X211003842Y-85424500D01*
X210846158Y-85424500D01*
X210846155Y-85424500D01*
X210691511Y-85455260D01*
X210691506Y-85455262D01*
X210691504Y-85455262D01*
X210691503Y-85455263D01*
X210667844Y-85465062D01*
X210620396Y-85474500D01*
X210337230Y-85474500D01*
X210270191Y-85454815D01*
X210249549Y-85438181D01*
X209661819Y-84850451D01*
X209628334Y-84789128D01*
X209625500Y-84762770D01*
X209625500Y-63554604D01*
X209634939Y-63507151D01*
X209644737Y-63483497D01*
X209675500Y-63328842D01*
X209675500Y-63171158D01*
X209675500Y-63171155D01*
X209675499Y-63171153D01*
X209657012Y-63078213D01*
X209644737Y-63016503D01*
X209644735Y-63016498D01*
X209584397Y-62870827D01*
X209584390Y-62870814D01*
X209496789Y-62739711D01*
X209496786Y-62739707D01*
X209385292Y-62628213D01*
X209385288Y-62628210D01*
X209254185Y-62540609D01*
X209254172Y-62540602D01*
X209108501Y-62480264D01*
X209108489Y-62480261D01*
X208953845Y-62449500D01*
X208953842Y-62449500D01*
X208796158Y-62449500D01*
X208796153Y-62449500D01*
X208748691Y-62458941D01*
X208679099Y-62452714D01*
X208623922Y-62409851D01*
X208600678Y-62343961D01*
X208600500Y-62337324D01*
X208600500Y-60885928D01*
X208575502Y-60760261D01*
X208575501Y-60760260D01*
X208575501Y-60760256D01*
X208526465Y-60641873D01*
X208492210Y-60590606D01*
X208492210Y-60590605D01*
X208455275Y-60535328D01*
X207264673Y-59344726D01*
X207264669Y-59344723D01*
X207158127Y-59273535D01*
X207039744Y-59224499D01*
X207039738Y-59224497D01*
X206914071Y-59199500D01*
X206914069Y-59199500D01*
X206504935Y-59199500D01*
X206437896Y-59179815D01*
X206436090Y-59178633D01*
X206379179Y-59140606D01*
X206379172Y-59140602D01*
X206233501Y-59080264D01*
X206233489Y-59080261D01*
X206078845Y-59049500D01*
X206078842Y-59049500D01*
X205921158Y-59049500D01*
X205921155Y-59049500D01*
X205766510Y-59080261D01*
X205766498Y-59080264D01*
X205620827Y-59140602D01*
X205620814Y-59140609D01*
X205489711Y-59228210D01*
X205489707Y-59228213D01*
X205378213Y-59339707D01*
X205378210Y-59339711D01*
X205327602Y-59415451D01*
X205273989Y-59460256D01*
X205204664Y-59468963D01*
X205141637Y-59438808D01*
X205104918Y-59379365D01*
X205100500Y-59346560D01*
X205100500Y-56985928D01*
X205075502Y-56860261D01*
X205075501Y-56860260D01*
X205075501Y-56860256D01*
X205026465Y-56741873D01*
X205017526Y-56728495D01*
X204955276Y-56635330D01*
X204955271Y-56635324D01*
X204309671Y-55989724D01*
X204309667Y-55989721D01*
X204203125Y-55918533D01*
X204146311Y-55895000D01*
X204084742Y-55869497D01*
X204084736Y-55869495D01*
X203959069Y-55844498D01*
X203959067Y-55844498D01*
X199304935Y-55844498D01*
X199291206Y-55841100D01*
X199280355Y-55842037D01*
X199258879Y-55833101D01*
X199247109Y-55830189D01*
X199241404Y-55827181D01*
X199179179Y-55785604D01*
X199101496Y-55753426D01*
X199096420Y-55750751D01*
X199075307Y-55730248D01*
X199052390Y-55711781D01*
X199050527Y-55706183D01*
X199046296Y-55702075D01*
X199039619Y-55673411D01*
X199030325Y-55645486D01*
X199031783Y-55639770D01*
X199030446Y-55634028D01*
X199040325Y-55606305D01*
X199047604Y-55577787D01*
X199052931Y-55570928D01*
X199053900Y-55568212D01*
X199056751Y-55566011D01*
X199066560Y-55553384D01*
X199433127Y-55186819D01*
X199494450Y-55153334D01*
X199520808Y-55150500D01*
X210429192Y-55150500D01*
X210496231Y-55170185D01*
X210516873Y-55186819D01*
X212413181Y-57083127D01*
X212446666Y-57144450D01*
X212449500Y-57170808D01*
X212449500Y-84192038D01*
X212440061Y-84239490D01*
X212403500Y-84327755D01*
X212403497Y-84327765D01*
X212378500Y-84453432D01*
X212378500Y-86900192D01*
X212358815Y-86967231D01*
X212342181Y-86987873D01*
X211366873Y-87963181D01*
X211305550Y-87996666D01*
X211279192Y-87999500D01*
X204679935Y-87999500D01*
X204612896Y-87979815D01*
X204611090Y-87978633D01*
X204554179Y-87940606D01*
X204554172Y-87940602D01*
X204408501Y-87880264D01*
X204408489Y-87880261D01*
X204253845Y-87849500D01*
X204253842Y-87849500D01*
X204096158Y-87849500D01*
X204096155Y-87849500D01*
X203941510Y-87880261D01*
X203941498Y-87880264D01*
X203795827Y-87940602D01*
X203795814Y-87940609D01*
X203664711Y-88028210D01*
X203664707Y-88028213D01*
X203553213Y-88139707D01*
X203553210Y-88139711D01*
X203465609Y-88270814D01*
X203465602Y-88270827D01*
X203405264Y-88416498D01*
X203405261Y-88416510D01*
X203374500Y-88571153D01*
X203374500Y-88728846D01*
X203405261Y-88883489D01*
X203405264Y-88883501D01*
X203465602Y-89029172D01*
X203465609Y-89029185D01*
X203553210Y-89160288D01*
X203553213Y-89160292D01*
X203664707Y-89271786D01*
X203664711Y-89271789D01*
X203795814Y-89359390D01*
X203795827Y-89359397D01*
X203941498Y-89419735D01*
X203941503Y-89419737D01*
X204096153Y-89450499D01*
X204096156Y-89450500D01*
X204096158Y-89450500D01*
X204253844Y-89450500D01*
X204253845Y-89450499D01*
X204408497Y-89419737D01*
X204554179Y-89359394D01*
X204611044Y-89321397D01*
X204677721Y-89300520D01*
X204679935Y-89300500D01*
X211664071Y-89300500D01*
X211748615Y-89283682D01*
X211789744Y-89275501D01*
X211908127Y-89226465D01*
X212014669Y-89155277D01*
X212306253Y-88863691D01*
X212367574Y-88830208D01*
X212437266Y-88835192D01*
X212481614Y-88863693D01*
X212589707Y-88971786D01*
X212589711Y-88971789D01*
X212720814Y-89059390D01*
X212720827Y-89059397D01*
X212866498Y-89119735D01*
X212866503Y-89119737D01*
X213021153Y-89150499D01*
X213021156Y-89150500D01*
X213021158Y-89150500D01*
X213178844Y-89150500D01*
X213178845Y-89150499D01*
X213333497Y-89119737D01*
X213479179Y-89059394D01*
X213610289Y-88971789D01*
X213610292Y-88971786D01*
X213625260Y-88956819D01*
X213686583Y-88923334D01*
X213712941Y-88920500D01*
X214377541Y-88920500D01*
X214462085Y-88903682D01*
X214503214Y-88895501D01*
X214621597Y-88846465D01*
X214629953Y-88840881D01*
X214631661Y-88839741D01*
X214664398Y-88817866D01*
X214728139Y-88775277D01*
X216216079Y-87287334D01*
X216277400Y-87253851D01*
X216347091Y-87258835D01*
X216372643Y-87271912D01*
X216416873Y-87301465D01*
X216535256Y-87350501D01*
X216535260Y-87350501D01*
X216535261Y-87350502D01*
X216660928Y-87375500D01*
X216660931Y-87375500D01*
X218045065Y-87375500D01*
X218112104Y-87395185D01*
X218113909Y-87396366D01*
X218170821Y-87434394D01*
X218170823Y-87434395D01*
X218170827Y-87434397D01*
X218275741Y-87477853D01*
X218316503Y-87494737D01*
X218471153Y-87525499D01*
X218471156Y-87525500D01*
X218471158Y-87525500D01*
X218628844Y-87525500D01*
X218628845Y-87525499D01*
X218783497Y-87494737D01*
X218929179Y-87434394D01*
X219060289Y-87346789D01*
X219171789Y-87235289D01*
X219259394Y-87104179D01*
X219319737Y-86958497D01*
X219350500Y-86803842D01*
X219350500Y-86646158D01*
X219350500Y-86646155D01*
X219350499Y-86646153D01*
X219334657Y-86566510D01*
X219319737Y-86491503D01*
X219306062Y-86458489D01*
X219259397Y-86345827D01*
X219259390Y-86345814D01*
X219171789Y-86214710D01*
X219060292Y-86103213D01*
X219060288Y-86103210D01*
X218929185Y-86015609D01*
X218929172Y-86015602D01*
X218844832Y-85980668D01*
X218783501Y-85955264D01*
X218783489Y-85955261D01*
X218628845Y-85924500D01*
X218628842Y-85924500D01*
X218471158Y-85924500D01*
X218471155Y-85924500D01*
X218316510Y-85955261D01*
X218316498Y-85955264D01*
X218170827Y-86015602D01*
X218170820Y-86015606D01*
X218148888Y-86030261D01*
X218113955Y-86053602D01*
X218047279Y-86074480D01*
X218045065Y-86074500D01*
X217151062Y-86074500D01*
X217084023Y-86054815D01*
X217038268Y-86002011D01*
X217036501Y-85997952D01*
X217001132Y-85912562D01*
X217001125Y-85912549D01*
X216975524Y-85874234D01*
X220514500Y-85874234D01*
X220514500Y-86025766D01*
X220515705Y-86030263D01*
X220553719Y-86172136D01*
X220591602Y-86237750D01*
X220629485Y-86303365D01*
X220736635Y-86410515D01*
X220867865Y-86486281D01*
X221014234Y-86525500D01*
X221014236Y-86525500D01*
X221165764Y-86525500D01*
X221165766Y-86525500D01*
X221312135Y-86486281D01*
X221443365Y-86410515D01*
X221550515Y-86303365D01*
X221626281Y-86172135D01*
X221665500Y-86025766D01*
X221665500Y-85874234D01*
X221626281Y-85727865D01*
X221550515Y-85596635D01*
X221443365Y-85489485D01*
X221377750Y-85451602D01*
X221312136Y-85413719D01*
X221238950Y-85394109D01*
X221165766Y-85374500D01*
X221014234Y-85374500D01*
X220867863Y-85413719D01*
X220736635Y-85489485D01*
X220736632Y-85489487D01*
X220629487Y-85596632D01*
X220629485Y-85596635D01*
X220553719Y-85727863D01*
X220516473Y-85866872D01*
X220514500Y-85874234D01*
X216975524Y-85874234D01*
X216913524Y-85781446D01*
X216913521Y-85781442D01*
X216802027Y-85669948D01*
X216802023Y-85669945D01*
X216670920Y-85582344D01*
X216670907Y-85582337D01*
X216525236Y-85521999D01*
X216525224Y-85521996D01*
X216370580Y-85491235D01*
X216370577Y-85491235D01*
X216212893Y-85491235D01*
X216212890Y-85491235D01*
X216058245Y-85521996D01*
X216058233Y-85521999D01*
X215912563Y-85582337D01*
X215912549Y-85582345D01*
X215903446Y-85588427D01*
X215836767Y-85609300D01*
X215769388Y-85590811D01*
X215746881Y-85573001D01*
X215663367Y-85489487D01*
X215663365Y-85489485D01*
X215597750Y-85451602D01*
X215532136Y-85413719D01*
X215458950Y-85394109D01*
X215385766Y-85374500D01*
X215234234Y-85374500D01*
X215087863Y-85413719D01*
X214956635Y-85489485D01*
X214956632Y-85489487D01*
X214849487Y-85596632D01*
X214849485Y-85596635D01*
X214773719Y-85727863D01*
X214736473Y-85866872D01*
X214734500Y-85874234D01*
X214734500Y-86025766D01*
X214735705Y-86030263D01*
X214773719Y-86172136D01*
X214811602Y-86237750D01*
X214849485Y-86303365D01*
X214956635Y-86410515D01*
X215004578Y-86438195D01*
X215052794Y-86488762D01*
X215066016Y-86557369D01*
X215040048Y-86622234D01*
X215030259Y-86633263D01*
X214080343Y-87583181D01*
X214053415Y-87597884D01*
X214027597Y-87614477D01*
X214021396Y-87615368D01*
X214019020Y-87616666D01*
X213992662Y-87619500D01*
X213753610Y-87619500D01*
X213686571Y-87599815D01*
X213640816Y-87547011D01*
X213630872Y-87477853D01*
X213639047Y-87448052D01*
X213654501Y-87410744D01*
X213674483Y-87310292D01*
X213679500Y-87285071D01*
X213679500Y-84771968D01*
X213688939Y-84724515D01*
X213725501Y-84636248D01*
X213750500Y-84510573D01*
X213750500Y-56785931D01*
X213750500Y-56785928D01*
X213725502Y-56660261D01*
X213725501Y-56660260D01*
X213725501Y-56660256D01*
X213676465Y-56541873D01*
X213605277Y-56435331D01*
X213605275Y-56435329D01*
X213605273Y-56435326D01*
X211164673Y-53994726D01*
X211058134Y-53923540D01*
X211058127Y-53923535D01*
X210939744Y-53874499D01*
X210939738Y-53874497D01*
X210814071Y-53849500D01*
X210814069Y-53849500D01*
X199135931Y-53849500D01*
X199135929Y-53849500D01*
X199010261Y-53874497D01*
X199010251Y-53874500D01*
X198961220Y-53894810D01*
X198891881Y-53923530D01*
X198891863Y-53923540D01*
X198785332Y-53994721D01*
X198785325Y-53994727D01*
X197797068Y-54982984D01*
X197735745Y-55016469D01*
X197733579Y-55016920D01*
X197666508Y-55030261D01*
X197666498Y-55030264D01*
X197520827Y-55090602D01*
X197520814Y-55090609D01*
X197389711Y-55178210D01*
X197389707Y-55178213D01*
X197278213Y-55289707D01*
X197278210Y-55289711D01*
X197190609Y-55420814D01*
X197190602Y-55420827D01*
X197130264Y-55566498D01*
X197130261Y-55566510D01*
X197099500Y-55721153D01*
X197099500Y-55878846D01*
X197130261Y-56033489D01*
X197130264Y-56033501D01*
X197190602Y-56179172D01*
X197190609Y-56179185D01*
X197278210Y-56310288D01*
X197278213Y-56310292D01*
X197389707Y-56421786D01*
X197389711Y-56421789D01*
X197520814Y-56509390D01*
X197520827Y-56509397D01*
X197599235Y-56541874D01*
X197666503Y-56569737D01*
X197821153Y-56600499D01*
X197821156Y-56600500D01*
X197903039Y-56600500D01*
X197970078Y-56620185D01*
X198015833Y-56672989D01*
X198024656Y-56700309D01*
X198030261Y-56728487D01*
X198030264Y-56728499D01*
X198090602Y-56874170D01*
X198090609Y-56874183D01*
X198178210Y-57005286D01*
X198178213Y-57005290D01*
X198289707Y-57116784D01*
X198289711Y-57116787D01*
X198420814Y-57204388D01*
X198420827Y-57204395D01*
X198566498Y-57264733D01*
X198566503Y-57264735D01*
X198721153Y-57295497D01*
X198721156Y-57295498D01*
X198721158Y-57295498D01*
X198878844Y-57295498D01*
X198878845Y-57295497D01*
X199033497Y-57264735D01*
X199179179Y-57204392D01*
X199236044Y-57166395D01*
X199302721Y-57145518D01*
X199304935Y-57145498D01*
X203574190Y-57145498D01*
X203603630Y-57154142D01*
X203633617Y-57160666D01*
X203638632Y-57164420D01*
X203641229Y-57165183D01*
X203661871Y-57181817D01*
X203763181Y-57283127D01*
X203796666Y-57344450D01*
X203799500Y-57370808D01*
X203799500Y-58932152D01*
X203779815Y-58999191D01*
X203727011Y-59044946D01*
X203699692Y-59053769D01*
X203566508Y-59080261D01*
X203566498Y-59080264D01*
X203420827Y-59140602D01*
X203420820Y-59140606D01*
X203391928Y-59159911D01*
X203363955Y-59178602D01*
X203297279Y-59199480D01*
X203295065Y-59199500D01*
X199104935Y-59199500D01*
X199037896Y-59179815D01*
X199036090Y-59178633D01*
X198979179Y-59140606D01*
X198979172Y-59140602D01*
X198833501Y-59080264D01*
X198833489Y-59080261D01*
X198678845Y-59049500D01*
X198678842Y-59049500D01*
X198521158Y-59049500D01*
X198521155Y-59049500D01*
X198366510Y-59080261D01*
X198366498Y-59080264D01*
X198220827Y-59140602D01*
X198220814Y-59140609D01*
X198089711Y-59228210D01*
X198089707Y-59228213D01*
X197978213Y-59339707D01*
X197978210Y-59339711D01*
X197890609Y-59470814D01*
X197890602Y-59470827D01*
X197830264Y-59616498D01*
X197830261Y-59616510D01*
X197799500Y-59771153D01*
X197799500Y-59928846D01*
X197830261Y-60083489D01*
X197830264Y-60083501D01*
X197890602Y-60229172D01*
X197890609Y-60229185D01*
X197978210Y-60360288D01*
X197978213Y-60360292D01*
X198089707Y-60471786D01*
X198089711Y-60471789D01*
X198220814Y-60559390D01*
X198220827Y-60559397D01*
X198296176Y-60590607D01*
X198366503Y-60619737D01*
X198521153Y-60650499D01*
X198521156Y-60650500D01*
X198521158Y-60650500D01*
X198678844Y-60650500D01*
X198678845Y-60650499D01*
X198833497Y-60619737D01*
X198979179Y-60559394D01*
X199036044Y-60521397D01*
X199102721Y-60500520D01*
X199104935Y-60500500D01*
X201247810Y-60500500D01*
X201314849Y-60520185D01*
X201360604Y-60572989D01*
X201370548Y-60642147D01*
X201341523Y-60705703D01*
X201295262Y-60739061D01*
X201170827Y-60790602D01*
X201170814Y-60790609D01*
X201039712Y-60878209D01*
X200928209Y-60989713D01*
X200910567Y-61016116D01*
X200895150Y-61034901D01*
X200866875Y-61063178D01*
X200805553Y-61096665D01*
X200779191Y-61099500D01*
X198554935Y-61099500D01*
X198487896Y-61079815D01*
X198486090Y-61078633D01*
X198429179Y-61040606D01*
X198429172Y-61040602D01*
X198283501Y-60980264D01*
X198283489Y-60980261D01*
X198128845Y-60949500D01*
X198128842Y-60949500D01*
X197971158Y-60949500D01*
X197971155Y-60949500D01*
X197816510Y-60980261D01*
X197816498Y-60980264D01*
X197670827Y-61040602D01*
X197670814Y-61040609D01*
X197539711Y-61128210D01*
X197539710Y-61128210D01*
X197531611Y-61136310D01*
X197470286Y-61169792D01*
X197400595Y-61164805D01*
X197356252Y-61136306D01*
X196214674Y-59994727D01*
X196214673Y-59994726D01*
X196214669Y-59994723D01*
X196108127Y-59923535D01*
X195989744Y-59874499D01*
X195989738Y-59874497D01*
X195864071Y-59849500D01*
X195864069Y-59849500D01*
X194204935Y-59849500D01*
X194137896Y-59829815D01*
X194136090Y-59828633D01*
X194079179Y-59790606D01*
X194079172Y-59790602D01*
X193933501Y-59730264D01*
X193933489Y-59730261D01*
X193778845Y-59699500D01*
X193778842Y-59699500D01*
X193621158Y-59699500D01*
X193621155Y-59699500D01*
X193466510Y-59730261D01*
X193466498Y-59730264D01*
X193320827Y-59790602D01*
X193320814Y-59790609D01*
X193189711Y-59878210D01*
X193189707Y-59878213D01*
X193078213Y-59989707D01*
X193078210Y-59989711D01*
X192990609Y-60120814D01*
X192990602Y-60120827D01*
X192930264Y-60266498D01*
X192930261Y-60266508D01*
X192898545Y-60425951D01*
X192866160Y-60487862D01*
X192805444Y-60522436D01*
X192801122Y-60523376D01*
X192766505Y-60530262D01*
X192766498Y-60530264D01*
X192620827Y-60590602D01*
X192620819Y-60590607D01*
X192489711Y-60678210D01*
X192489707Y-60678213D01*
X192378213Y-60789707D01*
X192378210Y-60789711D01*
X192290609Y-60920814D01*
X192290602Y-60920827D01*
X192230264Y-61066498D01*
X192230261Y-61066508D01*
X192216920Y-61133579D01*
X192184535Y-61195490D01*
X192182984Y-61197068D01*
X191644726Y-61735326D01*
X191582243Y-61828841D01*
X191582242Y-61828842D01*
X191573534Y-61841873D01*
X191524499Y-61960255D01*
X191524497Y-61960261D01*
X191499500Y-62085928D01*
X191499500Y-62085931D01*
X191499500Y-72914069D01*
X191499500Y-72914071D01*
X191499499Y-72914071D01*
X183185000Y-72914071D01*
X183185000Y-55895000D01*
X183124500Y-55895000D01*
X183057461Y-55875315D01*
X183011706Y-55822511D01*
X183000500Y-55771000D01*
X183000500Y-50624500D01*
X183020185Y-50557461D01*
X183072989Y-50511706D01*
X183124500Y-50500500D01*
X223885394Y-50500500D01*
X223952433Y-50520185D01*
G37*
%TD.AperFunction*%
%TD*%
M02*
