M48
; DRILL file {KiCad 9.0.2} date 2025-07-27T17:27:50+0530
; FORMAT={-:-/ absolute / metric / decimal}
; #@! TF.CreationDate,2025-07-27T17:27:50+05:30
; #@! TF.GenerationSoftware,Kicad,Pcbnew,9.0.2
; #@! TF.FileFunction,Plated,1,2,PTH
FMAT,2
METRIC
; #@! TA.AperFunction,Plated,PTH,ComponentDrill
T1C0.200
; #@! TA.AperFunction,Plated,PTH,ViaDrill
T2C0.300
; #@! TA.AperFunction,Plated,PTH,ComponentDrill
T3C0.600
%
G90
G05
T1
X190.55Y-79.812
X190.55Y-81.337
X191.312Y-79.05
X191.312Y-80.575
X191.312Y-82.1
X192.075Y-79.812
X192.075Y-81.337
X192.837Y-79.05
X192.837Y-80.575
X192.837Y-82.1
X193.6Y-79.812
X193.6Y-81.337
T2
X184.15Y-59.95
X184.735Y-90.075
X189.55Y-59.85
X190.8Y-59.85
X191.6Y-59.85
X192.3Y-59.85
X192.65Y-73.35
X193.0Y-61.3
X193.6Y-69.35
X193.7Y-60.5
X195.05Y-59.85
X195.179Y-63.7
X195.6Y-66.8
X195.7Y-62.05
X195.85Y-59.85
X196.15Y-69.65
X197.05Y-66.8
X197.05Y-69.2
X197.9Y-55.8
X198.05Y-61.75
X198.6Y-59.85
X198.8Y-56.495
X199.25Y-62.5
X199.9Y-86.8
X200.0Y-69.6
X200.11Y-68.79
X200.9Y-64.45
X201.55Y-61.5
X202.7Y-69.7
X203.8Y-59.85
X204.175Y-88.65
X204.3Y-85.75
X204.45Y-82.1
X205.8Y-53.85
X206.0Y-59.85
X206.05Y-66.35
X206.1Y-63.7
X206.4Y-58.4
X207.95Y-69.55
X208.875Y-63.25
X210.1Y-82.95
X210.925Y-86.225
X212.02Y-87.31
X212.45Y-89.7
X213.1Y-88.35
X213.75Y-83.75
X214.45Y-55.2
X214.45Y-56.35
X215.05Y-82.9
X215.2Y-80.2
X216.292Y-86.292
X218.55Y-86.725
X221.2Y-54.1
X221.3Y-73.15
X221.5Y-59.45
X221.5Y-89.65
X221.55Y-82.75
X222.05Y-78.8
X222.3Y-57.85
X222.4Y-59.45
X222.5Y-55.1
X222.7Y-83.75
X222.95Y-60.25
X222.95Y-61.15
T3
X213.88Y-84.87G85X213.88Y-85.97
G05
X213.88Y-89.3G85X213.88Y-89.9
G05
X222.52Y-84.87G85X222.52Y-85.97
G05
X222.52Y-89.3G85X222.52Y-89.9
G05
M30
