%TF.GenerationSoftware,KiCad,Pcbnew,9.0.2*%
%TF.CreationDate,2025-07-27T17:27:23+05:30*%
%TF.ProjectId,smart_usb,736d6172-745f-4757-9362-2e6b69636164,rev?*%
%TF.SameCoordinates,Original*%
%TF.FileFunction,Copper,L1,Top*%
%TF.FilePolarity,Positive*%
%FSLAX46Y46*%
G04 Gerber Fmt 4.6, Leading zero omitted, Abs format (unit mm)*
G04 Created by KiCad (PCBNEW 9.0.2) date 2025-07-27 17:27:23*
%MOMM*%
%LPD*%
G01*
G04 APERTURE LIST*
G04 Aperture macros list*
%AMRoundRect*
0 Rectangle with rounded corners*
0 $1 Rounding radius*
0 $2 $3 $4 $5 $6 $7 $8 $9 X,Y pos of 4 corners*
0 Add a 4 corners polygon primitive as box body*
4,1,4,$2,$3,$4,$5,$6,$7,$8,$9,$2,$3,0*
0 Add four circle primitives for the rounded corners*
1,1,$1+$1,$2,$3*
1,1,$1+$1,$4,$5*
1,1,$1+$1,$6,$7*
1,1,$1+$1,$8,$9*
0 Add four rect primitives between the rounded corners*
20,1,$1+$1,$2,$3,$4,$5,0*
20,1,$1+$1,$4,$5,$6,$7,0*
20,1,$1+$1,$6,$7,$8,$9,0*
20,1,$1+$1,$8,$9,$2,$3,0*%
G04 Aperture macros list end*
%TA.AperFunction,SMDPad,CuDef*%
%ADD10RoundRect,0.375000X-0.375000X0.625000X-0.375000X-0.625000X0.375000X-0.625000X0.375000X0.625000X0*%
%TD*%
%TA.AperFunction,SMDPad,CuDef*%
%ADD11RoundRect,0.500000X-1.400000X0.500000X-1.400000X-0.500000X1.400000X-0.500000X1.400000X0.500000X0*%
%TD*%
%TA.AperFunction,SMDPad,CuDef*%
%ADD12RoundRect,0.250000X-0.250000X-0.475000X0.250000X-0.475000X0.250000X0.475000X-0.250000X0.475000X0*%
%TD*%
%TA.AperFunction,SMDPad,CuDef*%
%ADD13RoundRect,0.250000X-0.262500X-0.450000X0.262500X-0.450000X0.262500X0.450000X-0.262500X0.450000X0*%
%TD*%
%TA.AperFunction,SMDPad,CuDef*%
%ADD14R,0.600000X1.450000*%
%TD*%
%TA.AperFunction,SMDPad,CuDef*%
%ADD15R,0.300000X1.450000*%
%TD*%
%TA.AperFunction,HeatsinkPad*%
%ADD16O,1.000000X2.100000*%
%TD*%
%TA.AperFunction,HeatsinkPad*%
%ADD17O,1.000000X1.600000*%
%TD*%
%TA.AperFunction,SMDPad,CuDef*%
%ADD18RoundRect,0.147500X0.147500X0.172500X-0.147500X0.172500X-0.147500X-0.172500X0.147500X-0.172500X0*%
%TD*%
%TA.AperFunction,SMDPad,CuDef*%
%ADD19R,0.400000X2.000000*%
%TD*%
%TA.AperFunction,SMDPad,CuDef*%
%ADD20RoundRect,0.062500X0.062500X-0.117500X0.062500X0.117500X-0.062500X0.117500X-0.062500X-0.117500X0*%
%TD*%
%TA.AperFunction,SMDPad,CuDef*%
%ADD21RoundRect,0.150000X0.825000X0.150000X-0.825000X0.150000X-0.825000X-0.150000X0.825000X-0.150000X0*%
%TD*%
%TA.AperFunction,SMDPad,CuDef*%
%ADD22R,0.900000X1.500000*%
%TD*%
%TA.AperFunction,SMDPad,CuDef*%
%ADD23R,1.500000X0.900000*%
%TD*%
%TA.AperFunction,SMDPad,CuDef*%
%ADD24R,1.050000X1.050000*%
%TD*%
%TA.AperFunction,HeatsinkPad*%
%ADD25C,0.600000*%
%TD*%
%TA.AperFunction,HeatsinkPad*%
%ADD26R,4.200000X4.200000*%
%TD*%
%TA.AperFunction,SMDPad,CuDef*%
%ADD27RoundRect,0.062500X-0.062500X0.117500X-0.062500X-0.117500X0.062500X-0.117500X0.062500X0.117500X0*%
%TD*%
%TA.AperFunction,SMDPad,CuDef*%
%ADD28RoundRect,0.250000X0.262500X0.450000X-0.262500X0.450000X-0.262500X-0.450000X0.262500X-0.450000X0*%
%TD*%
%TA.AperFunction,ViaPad*%
%ADD29C,0.600000*%
%TD*%
%TA.AperFunction,Conductor*%
%ADD30C,0.300000*%
%TD*%
%TA.AperFunction,Conductor*%
%ADD31C,0.500000*%
%TD*%
%TA.AperFunction,Conductor*%
%ADD32C,0.200000*%
%TD*%
G04 APERTURE END LIST*
D10*
%TO.P,U2,1,ADJ*%
%TO.N,GND*%
X221250000Y-61100000D03*
%TO.P,U2,2,VO*%
%TO.N,+3.3V*%
X218950000Y-61100000D03*
D11*
X218950000Y-67400000D03*
D10*
%TO.P,U2,3,VI*%
%TO.N,+5V*%
X216650000Y-61100000D03*
%TD*%
D12*
%TO.P,C2,1*%
%TO.N,+3.3V*%
X219300000Y-71450000D03*
%TO.P,C2,2*%
%TO.N,GND*%
X221200000Y-71450000D03*
%TD*%
D13*
%TO.P,R2,1*%
%TO.N,Net-(J1-CC2)*%
X219987500Y-80200000D03*
%TO.P,R2,2*%
%TO.N,GND*%
X221812500Y-80200000D03*
%TD*%
D14*
%TO.P,J1,A1,GND*%
%TO.N,GND*%
X214950000Y-84505000D03*
%TO.P,J1,A4,VBUS*%
%TO.N,VBUS*%
X215750000Y-84505000D03*
D15*
%TO.P,J1,A5,CC1*%
%TO.N,Net-(J1-CC1)*%
X216950000Y-84505000D03*
%TO.P,J1,A6,D+*%
%TO.N,Net-(D2-A2)*%
X217950000Y-84505000D03*
%TO.P,J1,A7,D-*%
%TO.N,Net-(D3-A2)*%
X218450000Y-84505000D03*
%TO.P,J1,A8,SBU1*%
%TO.N,unconnected-(J1-SBU1-PadA8)*%
X219450000Y-84505000D03*
D14*
%TO.P,J1,A9,VBUS*%
%TO.N,VBUS*%
X220650000Y-84505000D03*
%TO.P,J1,A12,GND*%
%TO.N,GND*%
X221450000Y-84505000D03*
%TO.P,J1,B1,GND*%
X221450000Y-84505000D03*
%TO.P,J1,B4,VBUS*%
%TO.N,VBUS*%
X220650000Y-84505000D03*
D15*
%TO.P,J1,B5,CC2*%
%TO.N,Net-(J1-CC2)*%
X219950000Y-84505000D03*
%TO.P,J1,B6,D+*%
%TO.N,Net-(D2-A2)*%
X218950000Y-84505000D03*
%TO.P,J1,B7,D-*%
%TO.N,Net-(D3-A2)*%
X217450000Y-84505000D03*
%TO.P,J1,B8,SBU2*%
%TO.N,unconnected-(J1-SBU2-PadB8)*%
X216450000Y-84505000D03*
D14*
%TO.P,J1,B9,VBUS*%
%TO.N,VBUS*%
X215750000Y-84505000D03*
%TO.P,J1,B12,GND*%
%TO.N,GND*%
X214950000Y-84505000D03*
D16*
%TO.P,J1,S1,SHIELD*%
X213880000Y-85420000D03*
D17*
X213880000Y-89600000D03*
D16*
X222520000Y-85420000D03*
D17*
X222520000Y-89600000D03*
%TD*%
D18*
%TO.P,D1,1,K*%
%TO.N,GND*%
X221285000Y-57900000D03*
%TO.P,D1,2,A*%
%TO.N,+5V*%
X220315000Y-57900000D03*
%TD*%
D12*
%TO.P,C5,1*%
%TO.N,Net-(DS1-VCOMH)*%
X202850000Y-63700000D03*
%TO.P,C5,2*%
%TO.N,GND*%
X204750000Y-63700000D03*
%TD*%
D19*
%TO.P,DS1,1,GND*%
%TO.N,GND*%
X184600000Y-57995000D03*
%TO.P,DS1,2,C2N*%
%TO.N,Net-(DS1-C2N)*%
X185300000Y-57995000D03*
%TO.P,DS1,3,C2P*%
%TO.N,Net-(DS1-C2P)*%
X186000000Y-57995000D03*
%TO.P,DS1,4,C1P*%
%TO.N,Net-(DS1-C1P)*%
X186700000Y-57995000D03*
%TO.P,DS1,5,C1N*%
%TO.N,Net-(DS1-C1N)*%
X187400000Y-57995000D03*
%TO.P,DS1,6,VBAT*%
%TO.N,+5V*%
X188100000Y-57995000D03*
%TO.P,DS1,7,NC*%
%TO.N,unconnected-(DS1-NC-Pad7)*%
X188800000Y-57995000D03*
%TO.P,DS1,8,VSS*%
%TO.N,GND*%
X189500000Y-57995000D03*
%TO.P,DS1,9,VDD*%
%TO.N,+5V*%
X190200000Y-57995000D03*
%TO.P,DS1,10,BS0*%
%TO.N,GND*%
X190900000Y-57995000D03*
%TO.P,DS1,11,BS1*%
X191600000Y-57995000D03*
%TO.P,DS1,12,BS2*%
X192300000Y-57995000D03*
%TO.P,DS1,13,~{CS}*%
%TO.N,Net-(DS1-~{CS})*%
X193000000Y-57995000D03*
%TO.P,DS1,14,~{RES}*%
%TO.N,Net-(DS1-~{RES})*%
X193700000Y-57995000D03*
%TO.P,DS1,15,D/~{C}*%
%TO.N,Net-(DS1-D{slash}~{C})*%
X194400000Y-57995000D03*
%TO.P,DS1,16,R/~{W}*%
%TO.N,GND*%
X195100000Y-57995000D03*
%TO.P,DS1,17,E/~{RD}*%
X195800000Y-57995000D03*
%TO.P,DS1,18,D0*%
%TO.N,Net-(DS1-D0)*%
X196500000Y-57995000D03*
%TO.P,DS1,19,D1*%
%TO.N,Net-(DS1-D1)*%
X197200000Y-57995000D03*
%TO.P,DS1,20,D2*%
%TO.N,Net-(DS1-D2)*%
X197900000Y-57995000D03*
%TO.P,DS1,21,D3*%
%TO.N,Net-(DS1-D3)*%
X198600000Y-57995000D03*
%TO.P,DS1,22,D4*%
%TO.N,Net-(DS1-D4)*%
X199300000Y-57995000D03*
%TO.P,DS1,23,D5*%
%TO.N,Net-(DS1-D5)*%
X200000000Y-57995000D03*
%TO.P,DS1,24,D6*%
%TO.N,Net-(DS1-D6)*%
X200700000Y-57995000D03*
%TO.P,DS1,25,D7*%
%TO.N,Net-(DS1-D7)*%
X201400000Y-57995000D03*
%TO.P,DS1,26,IREF*%
%TO.N,Net-(DS1-IREF)*%
X202100000Y-57995000D03*
%TO.P,DS1,27,VCOMH*%
%TO.N,Net-(DS1-VCOMH)*%
X202800000Y-57995000D03*
%TO.P,DS1,28,VCC*%
%TO.N,+5V*%
X203500000Y-57995000D03*
%TO.P,DS1,29,VLSS*%
%TO.N,GND*%
X204200000Y-57995000D03*
%TO.P,DS1,30,GND*%
X204900000Y-57995000D03*
%TD*%
D20*
%TO.P,D4,1,A1*%
%TO.N,GND*%
X211000000Y-84152500D03*
%TO.P,D4,2,A2*%
%TO.N,VBUS*%
X211000000Y-84992500D03*
%TD*%
D21*
%TO.P,U1,1,A1*%
%TO.N,GND*%
X212675000Y-56305000D03*
%TO.P,U1,2,A0*%
X212675000Y-55035000D03*
%TO.P,U1,3,SDA*%
%TO.N,SDA*%
X212675000Y-53765000D03*
%TO.P,U1,4,SCL*%
%TO.N,SCL*%
X212675000Y-52495000D03*
%TO.P,U1,5,VS*%
%TO.N,+5V*%
X207725000Y-52495000D03*
%TO.P,U1,6,GND*%
%TO.N,GND*%
X207725000Y-53765000D03*
%TO.P,U1,7,IN-*%
%TO.N,VBUS_FEMALE*%
X207725000Y-55035000D03*
%TO.P,U1,8,IN+*%
%TO.N,VBUS*%
X207725000Y-56305000D03*
%TD*%
D22*
%TO.P,U3,1,GND*%
%TO.N,GND*%
X184735000Y-88645000D03*
%TO.P,U3,2,VDD*%
%TO.N,+3.3V*%
X186005000Y-88645000D03*
%TO.P,U3,3,EN*%
%TO.N,unconnected-(U3-EN-Pad3)*%
X187275000Y-88645000D03*
%TO.P,U3,4,SENSOR_VP*%
%TO.N,unconnected-(U3-SENSOR_VP-Pad4)*%
X188545000Y-88645000D03*
%TO.P,U3,5,SENSOR_VN*%
%TO.N,unconnected-(U3-SENSOR_VN-Pad5)*%
X189815000Y-88645000D03*
%TO.P,U3,6,IO34*%
%TO.N,unconnected-(U3-IO34-Pad6)*%
X191085000Y-88645000D03*
%TO.P,U3,7,IO35*%
%TO.N,unconnected-(U3-IO35-Pad7)*%
X192355000Y-88645000D03*
%TO.P,U3,8,IO32*%
%TO.N,unconnected-(U3-IO32-Pad8)*%
X193625000Y-88645000D03*
%TO.P,U3,9,IO33*%
%TO.N,unconnected-(U3-IO33-Pad9)*%
X194895000Y-88645000D03*
%TO.P,U3,10,IO25*%
%TO.N,unconnected-(U3-IO25-Pad10)*%
X196165000Y-88645000D03*
%TO.P,U3,11,IO26*%
%TO.N,unconnected-(U3-IO26-Pad11)*%
X197435000Y-88645000D03*
%TO.P,U3,12,IO27*%
%TO.N,unconnected-(U3-IO27-Pad12)*%
X198705000Y-88645000D03*
%TO.P,U3,13,IO14*%
%TO.N,Net-(DS1-D2)*%
X199975000Y-88645000D03*
%TO.P,U3,14,IO12*%
%TO.N,Net-(DS1-D0)*%
X201245000Y-88645000D03*
D23*
%TO.P,U3,15,GND*%
%TO.N,GND*%
X202495000Y-85605000D03*
%TO.P,U3,16,IO13*%
%TO.N,Net-(DS1-D1)*%
X202495000Y-84335000D03*
%TO.P,U3,17,SHD/SD2*%
%TO.N,unconnected-(U3-SHD{slash}SD2-Pad17)*%
X202495000Y-83065000D03*
%TO.P,U3,18,SWP/SD3*%
%TO.N,unconnected-(U3-SWP{slash}SD3-Pad18)*%
X202495000Y-81795000D03*
%TO.P,U3,19,SCS/CMD*%
%TO.N,unconnected-(U3-SCS{slash}CMD-Pad19)*%
X202495000Y-80525000D03*
%TO.P,U3,20,SCK/CLK*%
%TO.N,unconnected-(U3-SCK{slash}CLK-Pad20)*%
X202495000Y-79255000D03*
%TO.P,U3,21,SDO/SD0*%
%TO.N,unconnected-(U3-SDO{slash}SD0-Pad21)*%
X202495000Y-77985000D03*
%TO.P,U3,22,SDI/SD1*%
%TO.N,unconnected-(U3-SDI{slash}SD1-Pad22)*%
X202495000Y-76715000D03*
%TO.P,U3,23,IO15*%
%TO.N,Net-(DS1-D3)*%
X202495000Y-75445000D03*
%TO.P,U3,24,IO2*%
%TO.N,Net-(DS1-~{CS})*%
X202495000Y-74175000D03*
D22*
%TO.P,U3,25,IO0*%
%TO.N,unconnected-(U3-IO0-Pad25)*%
X201245000Y-71145000D03*
%TO.P,U3,26,IO4*%
%TO.N,Net-(DS1-~{RES})*%
X199975000Y-71145000D03*
%TO.P,U3,27,IO16*%
%TO.N,Net-(DS1-D4)*%
X198705000Y-71145000D03*
%TO.P,U3,28,IO17*%
%TO.N,Net-(DS1-D5)*%
X197435000Y-71145000D03*
%TO.P,U3,29,IO5*%
%TO.N,Net-(DS1-D{slash}~{C})*%
X196165000Y-71145000D03*
%TO.P,U3,30,IO18*%
%TO.N,Net-(DS1-D6)*%
X194895000Y-71145000D03*
%TO.P,U3,31,IO19*%
%TO.N,Net-(DS1-D7)*%
X193625000Y-71145000D03*
%TO.P,U3,32,NC*%
%TO.N,unconnected-(U3-NC-Pad32)*%
X192355000Y-71145000D03*
%TO.P,U3,33,IO21*%
%TO.N,SDA*%
X191085000Y-71145000D03*
%TO.P,U3,34,RXD0/IO3*%
%TO.N,unconnected-(U3-RXD0{slash}IO3-Pad34)*%
X189815000Y-71145000D03*
%TO.P,U3,35,TXD0/IO1*%
%TO.N,unconnected-(U3-TXD0{slash}IO1-Pad35)*%
X188545000Y-71145000D03*
%TO.P,U3,36,IO22*%
%TO.N,SCL*%
X187275000Y-71145000D03*
%TO.P,U3,37,IO23*%
%TO.N,unconnected-(U3-IO23-Pad37)*%
X186005000Y-71145000D03*
%TO.P,U3,38,GND*%
%TO.N,GND*%
X184735000Y-71145000D03*
D24*
%TO.P,U3,39,GND*%
X190550000Y-82100000D03*
D25*
X191312500Y-82100000D03*
D24*
X192075000Y-82100000D03*
D25*
X192837500Y-82100000D03*
D24*
X193600000Y-82100000D03*
D25*
X190550000Y-81337500D03*
X192075000Y-81337500D03*
X193600000Y-81337500D03*
D24*
X190550000Y-80575000D03*
D25*
X191312500Y-80575000D03*
D24*
X192075000Y-80575000D03*
D26*
X192075000Y-80575000D03*
D25*
X192837500Y-80575000D03*
D24*
X193600000Y-80575000D03*
D25*
X190550000Y-79812500D03*
X192075000Y-79812500D03*
X193600000Y-79812500D03*
D24*
X190550000Y-79050000D03*
D25*
X191312500Y-79050000D03*
D24*
X192075000Y-79050000D03*
D25*
X192837500Y-79050000D03*
D24*
X193600000Y-79050000D03*
%TD*%
D27*
%TO.P,D3,1,A1*%
%TO.N,GND*%
X211000000Y-82847500D03*
%TO.P,D3,2,A2*%
%TO.N,Net-(D3-A2)*%
X211000000Y-82007500D03*
%TD*%
D12*
%TO.P,R3,1*%
%TO.N,Net-(DS1-IREF)*%
X202850000Y-66200000D03*
%TO.P,R3,2*%
%TO.N,GND*%
X204750000Y-66200000D03*
%TD*%
D27*
%TO.P,D2,1,A1*%
%TO.N,GND*%
X212050000Y-82847500D03*
%TO.P,D2,2,A2*%
%TO.N,Net-(D2-A2)*%
X212050000Y-82007500D03*
%TD*%
D12*
%TO.P,C3,1*%
%TO.N,Net-(DS1-C2N)*%
X184200000Y-63400000D03*
%TO.P,C3,2*%
%TO.N,Net-(DS1-C2P)*%
X186100000Y-63400000D03*
%TD*%
D28*
%TO.P,R1,1*%
%TO.N,Net-(J1-CC1)*%
X216962500Y-81600000D03*
%TO.P,R1,2*%
%TO.N,GND*%
X215137500Y-81600000D03*
%TD*%
D12*
%TO.P,C4,1*%
%TO.N,Net-(DS1-C1P)*%
X187700000Y-63300000D03*
%TO.P,C4,2*%
%TO.N,Net-(DS1-C1N)*%
X189600000Y-63300000D03*
%TD*%
%TO.P,C1,1*%
%TO.N,+5V*%
X219400000Y-55600000D03*
%TO.P,C1,2*%
%TO.N,GND*%
X221300000Y-55600000D03*
%TD*%
D29*
%TO.N,GND*%
X222700000Y-83750000D03*
X195850000Y-59850000D03*
X222500000Y-55100000D03*
X212020380Y-87310380D03*
X214450000Y-56350000D03*
X221500000Y-59450000D03*
X205800000Y-53850000D03*
X192300000Y-59850000D03*
X184735000Y-90075000D03*
X190800000Y-59850000D03*
X221550000Y-82750000D03*
X214450000Y-55200000D03*
X191600000Y-59850000D03*
X222950000Y-61150000D03*
X212450000Y-89700000D03*
X222050000Y-78800000D03*
X222400000Y-59450000D03*
X221200000Y-54100000D03*
X189550000Y-59850000D03*
X210100000Y-82950000D03*
X204300000Y-85750000D03*
X222300000Y-57850000D03*
X221300000Y-73150000D03*
X195050000Y-59850000D03*
X222950000Y-60250000D03*
X206100000Y-63700000D03*
X215050000Y-82900000D03*
X213750000Y-83750000D03*
X206400000Y-58400000D03*
X215200000Y-80200000D03*
X206050000Y-66350000D03*
X221500000Y-89650000D03*
X184150000Y-59950000D03*
%TO.N,VBUS*%
X210925000Y-86225000D03*
X216291735Y-86291735D03*
X213100000Y-88350000D03*
X208875000Y-63250000D03*
X218550000Y-86725000D03*
%TO.N,Net-(DS1-D7)*%
X201550000Y-61500000D03*
X193600000Y-69350000D03*
X198050000Y-61750000D03*
X195179346Y-63700000D03*
%TO.N,Net-(DS1-D3)*%
X206000000Y-59850000D03*
X198600000Y-59850000D03*
X207950000Y-69550000D03*
X203800000Y-59850000D03*
%TO.N,Net-(DS1-~{RES})*%
X200000000Y-69600000D03*
X193700000Y-60500000D03*
%TO.N,Net-(DS1-D{slash}~{C})*%
X196150000Y-69650000D03*
X195600000Y-66800000D03*
%TO.N,Net-(DS1-D2)*%
X195700000Y-62050000D03*
X199900000Y-86800000D03*
%TO.N,Net-(DS1-D0)*%
X197900000Y-55800000D03*
X204175000Y-88650000D03*
%TO.N,Net-(DS1-D6)*%
X200900000Y-64450000D03*
X202700000Y-69700000D03*
%TO.N,Net-(DS1-~{CS})*%
X192650000Y-73350000D03*
X193000000Y-61300000D03*
%TO.N,Net-(DS1-D1)*%
X204450000Y-82100000D03*
X198800000Y-56494998D03*
%TO.N,Net-(DS1-D4)*%
X199250000Y-62500000D03*
X200109620Y-68790380D03*
%TO.N,Net-(DS1-D5)*%
X197050000Y-66800000D03*
X197050000Y-69200000D03*
%TD*%
D30*
%TO.N,GND*%
X184735000Y-71145000D02*
X184735000Y-73235000D01*
X195800000Y-59800000D02*
X195850000Y-59850000D01*
X184735000Y-87915000D02*
X190550000Y-82100000D01*
X183900000Y-59700000D02*
X183900000Y-58695000D01*
X213880000Y-88209346D02*
X213880000Y-89600000D01*
X191600000Y-57995000D02*
X191600000Y-59850000D01*
X202495000Y-85605000D02*
X197105000Y-85605000D01*
X222520000Y-83930000D02*
X222700000Y-83750000D01*
X189500000Y-57995000D02*
X189500000Y-59800000D01*
X221812500Y-80200000D02*
X221812500Y-79037500D01*
X221300000Y-54200000D02*
X221200000Y-54100000D01*
X221200000Y-73050000D02*
X221300000Y-73150000D01*
X205800000Y-53850000D02*
X207640000Y-53850000D01*
X211000000Y-84152500D02*
X211000000Y-82847500D01*
X222400000Y-59450000D02*
X221500000Y-59450000D01*
X184735000Y-90075000D02*
X184735000Y-88645000D01*
X195100000Y-59800000D02*
X195050000Y-59850000D01*
X221550000Y-89600000D02*
X221500000Y-89650000D01*
X207640000Y-53850000D02*
X207725000Y-53765000D01*
X222950000Y-60000000D02*
X222400000Y-59450000D01*
X213750000Y-83750000D02*
X213800000Y-83750000D01*
X204750000Y-66200000D02*
X205900000Y-66200000D01*
X212000000Y-83830000D02*
X212050000Y-83780000D01*
X190900000Y-57995000D02*
X190900000Y-59750000D01*
X214950000Y-84505000D02*
X214950000Y-83000000D01*
X212211000Y-87501000D02*
X213171654Y-87501000D01*
X189500000Y-59800000D02*
X189550000Y-59850000D01*
X213171654Y-87501000D02*
X213880000Y-88209346D01*
X204750000Y-63700000D02*
X206100000Y-63700000D01*
X221812500Y-79037500D02*
X222050000Y-78800000D01*
X222250000Y-57900000D02*
X222300000Y-57850000D01*
X205995000Y-57995000D02*
X204900000Y-57995000D01*
X221450000Y-82850000D02*
X221550000Y-82750000D01*
X204200000Y-57995000D02*
X204900000Y-57995000D01*
X221285000Y-57900000D02*
X222250000Y-57900000D01*
X212050000Y-82847500D02*
X211000000Y-82847500D01*
X204155000Y-85605000D02*
X204300000Y-85750000D01*
X212000000Y-87290000D02*
X212000000Y-83830000D01*
X197105000Y-85605000D02*
X193600000Y-82100000D01*
X184735000Y-73235000D02*
X190550000Y-79050000D01*
X221812500Y-80200000D02*
X221812500Y-82487500D01*
X222520000Y-89600000D02*
X221550000Y-89600000D01*
X205900000Y-66200000D02*
X206050000Y-66350000D01*
X215050000Y-81687500D02*
X215137500Y-81600000D01*
X190900000Y-59750000D02*
X190800000Y-59850000D01*
X210100000Y-82950000D02*
X210897500Y-82950000D01*
X215137500Y-80262500D02*
X215200000Y-80200000D01*
X206400000Y-58400000D02*
X205995000Y-57995000D01*
X214950000Y-83000000D02*
X215050000Y-82900000D01*
X221250000Y-61100000D02*
X221250000Y-59700000D01*
X184150000Y-59950000D02*
X183900000Y-59700000D01*
X222500000Y-55100000D02*
X221800000Y-55100000D01*
X221450000Y-84505000D02*
X221450000Y-82850000D01*
X192300000Y-57995000D02*
X192300000Y-59850000D01*
X221200000Y-71450000D02*
X221200000Y-73050000D01*
X221800000Y-55100000D02*
X221300000Y-55600000D01*
X215137500Y-81600000D02*
X215137500Y-80262500D01*
X212720000Y-56350000D02*
X212675000Y-56305000D01*
X212675000Y-55035000D02*
X214285000Y-55035000D01*
X213880000Y-89600000D02*
X212550000Y-89600000D01*
X195100000Y-57995000D02*
X195100000Y-59800000D01*
X222520000Y-85420000D02*
X222520000Y-83930000D01*
X212550000Y-89600000D02*
X212450000Y-89700000D01*
X221250000Y-59700000D02*
X221500000Y-59450000D01*
X183900000Y-58695000D02*
X184600000Y-57995000D01*
X210897500Y-82950000D02*
X211000000Y-82847500D01*
X202495000Y-85605000D02*
X204155000Y-85605000D01*
X221812500Y-82487500D02*
X221550000Y-82750000D01*
X184735000Y-88645000D02*
X184735000Y-87915000D01*
X212020380Y-87310380D02*
X212000000Y-87290000D01*
X222950000Y-60250000D02*
X222950000Y-60000000D01*
X213880000Y-83830000D02*
X213880000Y-85420000D01*
X213800000Y-83750000D02*
X213880000Y-83830000D01*
X195800000Y-57995000D02*
X195800000Y-59800000D01*
X215050000Y-82900000D02*
X215050000Y-81687500D01*
X212020380Y-87310380D02*
X212211000Y-87501000D01*
X214285000Y-55035000D02*
X214450000Y-55200000D01*
X221300000Y-55600000D02*
X221300000Y-54200000D01*
X214450000Y-56350000D02*
X212720000Y-56350000D01*
X222950000Y-61150000D02*
X222950000Y-60250000D01*
X212050000Y-83780000D02*
X212050000Y-82847500D01*
D31*
%TO.N,+5V*%
X219400000Y-51600000D02*
X219400000Y-55600000D01*
X192850000Y-53950000D02*
X203500000Y-53950000D01*
X219400000Y-56985000D02*
X220315000Y-57900000D01*
X205650000Y-52495000D02*
X207725000Y-52495000D01*
X188100000Y-57995000D02*
X188100000Y-56550000D01*
X203500000Y-53950000D02*
X204955000Y-52495000D01*
X189700000Y-56100000D02*
X190200000Y-56600000D01*
X206994000Y-51151000D02*
X219051000Y-51151000D01*
X219850000Y-57900000D02*
X220315000Y-57900000D01*
X188550000Y-56100000D02*
X189700000Y-56100000D01*
X190200000Y-56600000D02*
X192850000Y-53950000D01*
X219400000Y-55600000D02*
X219400000Y-56985000D01*
X205650000Y-52495000D02*
X206994000Y-51151000D01*
X216650000Y-61100000D02*
X219850000Y-57900000D01*
X219051000Y-51151000D02*
X219450000Y-51550000D01*
X190200000Y-56600000D02*
X190200000Y-57995000D01*
X188100000Y-56550000D02*
X188550000Y-56100000D01*
X203500000Y-57995000D02*
X203500000Y-53950000D01*
X219450000Y-51550000D02*
X219400000Y-51600000D01*
X204955000Y-52495000D02*
X205650000Y-52495000D01*
D30*
%TO.N,+3.3V*%
X218950000Y-71100000D02*
X219300000Y-71450000D01*
X187200000Y-90300000D02*
X186005000Y-89105000D01*
X218950000Y-67400000D02*
X218950000Y-71100000D01*
X208750000Y-74350000D02*
X208750000Y-89450000D01*
X186005000Y-89105000D02*
X186005000Y-88645000D01*
X211650000Y-71450000D02*
X208750000Y-74350000D01*
X218950000Y-61100000D02*
X218950000Y-67400000D01*
X219300000Y-71450000D02*
X211650000Y-71450000D01*
X207900000Y-90300000D02*
X187200000Y-90300000D01*
X208750000Y-89450000D02*
X207900000Y-90300000D01*
%TO.N,Net-(DS1-C2N)*%
X185300000Y-57995000D02*
X185300000Y-59925000D01*
X184200000Y-61025000D02*
X184200000Y-63400000D01*
X185300000Y-59925000D02*
X184200000Y-61025000D01*
%TO.N,Net-(DS1-C2P)*%
X186100000Y-58095000D02*
X186000000Y-57995000D01*
X186100000Y-63400000D02*
X186100000Y-58095000D01*
%TO.N,Net-(DS1-C1P)*%
X186700000Y-57995000D02*
X186700000Y-61450000D01*
X186700000Y-61450000D02*
X187700000Y-62450000D01*
X187700000Y-62450000D02*
X187700000Y-63300000D01*
%TO.N,Net-(DS1-C1N)*%
X189600000Y-63300000D02*
X187400000Y-61100000D01*
X187400000Y-61100000D02*
X187400000Y-57995000D01*
%TO.N,Net-(DS1-VCOMH)*%
X202850000Y-63700000D02*
X203150000Y-63400000D01*
X202949000Y-59346000D02*
X202949000Y-58293942D01*
X202899000Y-58094000D02*
X202800000Y-57995000D01*
X203150000Y-59346000D02*
X202949000Y-59346000D01*
X202899000Y-58243942D02*
X202899000Y-58094000D01*
X203150000Y-63400000D02*
X203150000Y-59346000D01*
X202949000Y-58293942D02*
X202899000Y-58243942D01*
D32*
%TO.N,Net-(D2-A2)*%
X218782000Y-85650000D02*
X218100000Y-85650000D01*
X217950000Y-85500000D02*
X217950000Y-84505000D01*
X212900000Y-87050000D02*
X212600000Y-86750000D01*
X218100000Y-85650000D02*
X217950000Y-85500000D01*
X218950000Y-84505000D02*
X218950000Y-85482000D01*
X216382000Y-87050000D02*
X212900000Y-87050000D01*
X217950000Y-85482000D02*
X216382000Y-87050000D01*
X212600000Y-86750000D02*
X212600000Y-82557500D01*
X212600000Y-82557500D02*
X212050000Y-82007500D01*
X217950000Y-84505000D02*
X217950000Y-85482000D01*
X218950000Y-85482000D02*
X218782000Y-85650000D01*
%TO.N,Net-(D3-A2)*%
X211000000Y-79200000D02*
X211000000Y-82007500D01*
X218172000Y-83250000D02*
X217700000Y-83250000D01*
X211250000Y-78950000D02*
X211000000Y-79200000D01*
X217600000Y-78950000D02*
X211250000Y-78950000D01*
X218450000Y-84505000D02*
X218450000Y-83528000D01*
X218450000Y-79800000D02*
X217600000Y-78950000D01*
X217450000Y-83500000D02*
X217450000Y-84505000D01*
X218450000Y-83528000D02*
X218172000Y-83250000D01*
X217700000Y-83250000D02*
X217450000Y-83500000D01*
X218450000Y-84505000D02*
X218450000Y-79800000D01*
D30*
%TO.N,VBUS*%
X213100000Y-88350000D02*
X212720000Y-88350000D01*
X212550000Y-88180000D02*
X211500000Y-88180000D01*
X220650000Y-84505000D02*
X220650000Y-85175000D01*
X220650000Y-85175000D02*
X219100000Y-86725000D01*
X210925000Y-87605000D02*
X210925000Y-86225000D01*
X215750000Y-84505000D02*
X215750000Y-85175000D01*
X211500000Y-88180000D02*
X210925000Y-87605000D01*
D31*
X211000000Y-86150000D02*
X210925000Y-86225000D01*
D30*
X219100000Y-86725000D02*
X218550000Y-86725000D01*
D31*
X207725000Y-56305000D02*
X208875000Y-57455000D01*
D30*
X212720000Y-88350000D02*
X212550000Y-88180000D01*
D31*
X208875000Y-57455000D02*
X208875000Y-63250000D01*
X211000000Y-84992500D02*
X211000000Y-86150000D01*
D30*
X215750000Y-85175000D02*
X216291735Y-85716735D01*
X216291735Y-85716735D02*
X216291735Y-86291735D01*
%TO.N,Net-(DS1-IREF)*%
X202500000Y-59605521D02*
X202448000Y-59553521D01*
X202344130Y-64776000D02*
X201999000Y-64430870D01*
X202500000Y-65850000D02*
X202500000Y-64776000D01*
X202249000Y-58144000D02*
X202100000Y-57995000D01*
X202249000Y-59346000D02*
X202249000Y-58144000D01*
X202448000Y-59553521D02*
X202448000Y-59346000D01*
X202448000Y-59346000D02*
X202249000Y-59346000D01*
X202344130Y-62624000D02*
X202500000Y-62624000D01*
X202850000Y-66200000D02*
X202500000Y-65850000D01*
X202500000Y-62624000D02*
X202500000Y-59605521D01*
X201999000Y-62969130D02*
X202344130Y-62624000D01*
X201999000Y-64430870D02*
X201999000Y-62969130D01*
X202500000Y-64776000D02*
X202344130Y-64776000D01*
%TO.N,Net-(DS1-D7)*%
X201550000Y-60000000D02*
X201550000Y-61500000D01*
X195179346Y-63700000D02*
X195250000Y-63700000D01*
X201400000Y-59850000D02*
X201400000Y-57995000D01*
X195250000Y-63700000D02*
X197200000Y-61750000D01*
X193625000Y-69375000D02*
X193600000Y-69350000D01*
X201400000Y-59850000D02*
X201550000Y-60000000D01*
X197200000Y-61750000D02*
X198050000Y-61750000D01*
X193625000Y-71145000D02*
X193625000Y-69375000D01*
%TO.N,Net-(DS1-D3)*%
X206000000Y-59850000D02*
X203800000Y-59850000D01*
X198600000Y-57995000D02*
X198600000Y-59850000D01*
X207950000Y-71408521D02*
X207950000Y-69550000D01*
X202495000Y-75445000D02*
X203913521Y-75445000D01*
X203913521Y-75445000D02*
X207950000Y-71408521D01*
%TO.N,Net-(DS1-~{RES})*%
X199975000Y-69625000D02*
X200000000Y-69600000D01*
X193700000Y-60500000D02*
X193700000Y-57995000D01*
X199975000Y-71145000D02*
X199975000Y-69625000D01*
%TO.N,Net-(DS1-D{slash}~{C})*%
X196165000Y-69665000D02*
X196150000Y-69650000D01*
X195600000Y-66800000D02*
X195600000Y-66600000D01*
X194400000Y-65400000D02*
X194400000Y-57995000D01*
X195600000Y-66600000D02*
X194400000Y-65400000D01*
X196165000Y-71145000D02*
X196165000Y-69665000D01*
%TO.N,Net-(DS1-D2)*%
X199975000Y-86875000D02*
X199900000Y-86800000D01*
X195700000Y-62050000D02*
X197900000Y-59850000D01*
X197900000Y-59850000D02*
X197900000Y-57995000D01*
X199975000Y-88645000D02*
X199975000Y-86875000D01*
%TO.N,Net-(DS1-D0)*%
X196500000Y-57995000D02*
X196500000Y-56695000D01*
X196500000Y-56695000D02*
X197395000Y-55800000D01*
X204175000Y-88650000D02*
X204170000Y-88645000D01*
X204170000Y-88645000D02*
X201245000Y-88645000D01*
X197395000Y-55800000D02*
X197900000Y-55800000D01*
%TO.N,Net-(DS1-D6)*%
X202046000Y-72246000D02*
X202700000Y-71592000D01*
X200900000Y-64450000D02*
X200900000Y-60316137D01*
X195364000Y-72246000D02*
X202046000Y-72246000D01*
X200700000Y-60116137D02*
X200700000Y-57995000D01*
X202700000Y-71592000D02*
X202700000Y-69700000D01*
X200900000Y-60316137D02*
X200700000Y-60116137D01*
X194895000Y-71777000D02*
X195364000Y-72246000D01*
X194895000Y-71145000D02*
X194895000Y-71777000D01*
%TO.N,Net-(DS1-~{CS})*%
X193000000Y-57995000D02*
X193000000Y-61300000D01*
X193325000Y-74175000D02*
X202495000Y-74175000D01*
X192650000Y-73350000D02*
X192650000Y-73500000D01*
X192650000Y-73500000D02*
X193325000Y-74175000D01*
%TO.N,Net-(DS1-D1)*%
X197200000Y-57995000D02*
X197200000Y-56881346D01*
X204450000Y-83430000D02*
X204450000Y-82100000D01*
X197200000Y-56881346D02*
X197581346Y-56500000D01*
X197581346Y-56500000D02*
X198800000Y-56500000D01*
X202495000Y-84335000D02*
X203545000Y-84335000D01*
X198800000Y-56500000D02*
X198800000Y-56494998D01*
X203545000Y-84335000D02*
X204450000Y-83430000D01*
%TO.N,Net-(DS1-D4)*%
X198705000Y-69755000D02*
X198705000Y-71145000D01*
X199669620Y-68790380D02*
X198705000Y-69755000D01*
X199250000Y-58045000D02*
X199300000Y-57995000D01*
X199250000Y-62500000D02*
X199250000Y-58045000D01*
X200109620Y-68790380D02*
X199669620Y-68790380D01*
%TO.N,Net-(DS1-D5)*%
X197050000Y-66800000D02*
X197050000Y-65352000D01*
X197435000Y-71145000D02*
X197435000Y-69585000D01*
X197435000Y-69585000D02*
X197050000Y-69200000D01*
X199610327Y-65150000D02*
X200200000Y-64560327D01*
X197050000Y-65352000D02*
X197252000Y-65150000D01*
X200200000Y-60650000D02*
X200000000Y-60450000D01*
X200000000Y-60450000D02*
X200000000Y-57995000D01*
X200200000Y-64560327D02*
X200200000Y-60650000D01*
X197252000Y-65150000D02*
X199610327Y-65150000D01*
D32*
%TO.N,Net-(J1-CC2)*%
X219950000Y-80237500D02*
X219987500Y-80200000D01*
X219950000Y-84505000D02*
X219950000Y-80237500D01*
%TO.N,Net-(J1-CC1)*%
X216962500Y-81600000D02*
X216962500Y-84492500D01*
X216962500Y-84492500D02*
X216950000Y-84505000D01*
D30*
%TO.N,SCL*%
X187275000Y-70513000D02*
X187275000Y-71145000D01*
X211700001Y-52495000D02*
X209750000Y-54445001D01*
X212675000Y-52495000D02*
X211700001Y-52495000D01*
X209750000Y-54445001D02*
X209750000Y-66400000D01*
X190288000Y-67500000D02*
X187275000Y-70513000D01*
X208702000Y-67500000D02*
X208702000Y-67448000D01*
X208702000Y-67448000D02*
X209750000Y-66400000D01*
X208702000Y-67500000D02*
X190288000Y-67500000D01*
%TO.N,SDA*%
X210600000Y-55422322D02*
X210600000Y-67400000D01*
X210600000Y-67400000D02*
X209950000Y-68050000D01*
X212675000Y-53765000D02*
X212257322Y-53765000D01*
X209950000Y-68050000D02*
X193548000Y-68050000D01*
X193548000Y-68050000D02*
X191085000Y-70513000D01*
X212257322Y-53765000D02*
X210600000Y-55422322D01*
X191085000Y-70513000D02*
X191085000Y-71145000D01*
%TD*%
M02*
